<?xml version="1.0" encoding="UTF-8" ?>
<!DOCTYPE svg PUBLIC "-//W3C//DTD SVG 1.1//EN" "http://www.w3.org/Graphics/SVG/1.1/DTD/svg11.dtd">
<svg width="256pt" height="100pt" viewBox="0 0 256 100" version="1.1" xmlns="http://www.w3.org/2000/svg">
<path fill="#5a5a5a" d=" M 0.00 0.00 L 1.00 0.00 C 1.00 33.33 1.00 66.67 1.00 100.00 L 0.00 100.00 L 0.00 0.00 Z" />
<path fill="#000000" d=" M 1.00 0.00 L 256.00 0.00 L 256.00 100.00 L 1.00 100.00 C 1.00 66.67 1.00 33.33 1.00 0.00 Z" />
<path fill="#f7cf46" d=" M 167.39 14.61 C 173.04 12.10 180.85 15.54 181.59 21.98 C 182.43 28.60 174.84 33.47 168.88 31.78 C 164.84 30.93 161.09 27.37 161.17 23.04 C 160.99 19.21 163.97 15.92 167.39 14.61 Z" />
<path fill="#ffffff" d=" M 30.37 17.84 C 36.89 17.10 43.39 16.22 49.90 15.49 C 49.83 23.03 48.25 30.47 46.07 37.67 C 52.17 34.97 59.55 34.30 65.65 37.36 C 70.59 39.86 72.82 45.68 72.53 50.98 C 72.27 66.34 61.99 82.56 46.14 85.37 C 35.94 86.67 25.41 85.50 15.67 82.19 C 16.68 79.88 17.53 77.49 18.10 75.03 C 21.26 61.83 24.54 48.65 27.70 35.45 C 29.03 29.66 30.33 23.81 30.37 17.84 Z" />
<path fill="#ffffff" d=" M 185.17 37.79 C 190.63 37.14 196.12 36.59 201.56 35.71 C 201.95 37.22 202.23 38.75 202.56 40.28 C 207.43 37.17 213.27 36.03 218.97 35.88 C 222.94 36.00 227.33 36.80 230.08 39.94 C 233.24 43.30 233.20 48.33 232.34 52.58 C 229.69 63.29 226.90 73.97 224.29 84.70 C 218.02 84.71 211.75 84.71 205.48 84.70 C 208.01 74.49 210.53 64.27 212.98 54.04 C 213.72 52.05 212.59 49.12 210.15 49.33 C 207.00 49.28 203.79 51.37 202.40 54.15 C 199.78 64.31 197.30 74.50 194.79 84.69 C 188.55 84.73 182.31 84.70 176.07 84.70 C 178.48 74.49 181.04 64.31 183.52 54.11 C 184.79 48.78 185.71 43.28 185.17 37.79 Z" />
<path fill="#ffffff" d=" M 76.70 38.36 C 82.92 37.44 89.15 36.65 95.40 36.06 C 94.77 45.72 94.56 55.42 93.78 65.08 C 98.63 55.65 103.12 46.05 107.87 36.58 C 113.49 36.58 119.11 36.58 124.73 36.58 C 125.04 45.95 124.30 55.39 125.52 64.71 C 127.95 54.88 132.94 45.91 136.73 36.56 C 143.02 36.60 149.31 36.56 155.60 36.59 C 146.24 52.58 137.00 68.64 127.70 84.67 C 122.05 84.74 116.40 84.70 110.75 84.70 C 110.66 75.43 110.75 66.16 110.54 56.90 C 106.27 66.27 101.55 75.43 97.04 84.69 C 91.53 84.72 86.01 84.71 80.50 84.70 C 79.24 69.25 78.12 53.79 76.70 38.36 Z" />
<path fill="#ffffff" d=" M 159.46 37.94 C 165.85 37.53 172.19 36.63 178.58 36.15 C 174.47 52.32 170.57 68.54 166.50 84.72 C 160.25 84.69 154.00 84.73 147.75 84.69 C 151.76 69.13 155.36 53.48 159.46 37.94 Z" />
<path fill="#000000" d=" M 42.86 50.87 C 44.98 48.20 50.37 47.03 52.26 50.48 C 53.37 53.83 52.26 57.42 51.56 60.76 C 50.42 64.84 49.30 69.46 45.73 72.14 C 43.27 73.88 40.15 73.19 37.51 72.30 C 39.41 65.19 40.81 57.94 42.86 50.87 Z" />
</svg>
